<svg width="80" height="80" viewBox="0 0 80 80" fill="none" xmlns="http://www.w3.org/2000/svg">
<rect width="80" height="80" rx="40" fill="#FFD024"/>
<path d="M26.8275 27.6959C27.9662 27.9386 28.8808 28.5079 29.5715 29.4039C30.2622 30.2812 30.6075 31.2892 30.6075 32.4279C30.6075 34.0706 30.0288 35.3772 28.8715 36.3479C27.7328 37.2999 26.1368 37.7759 24.0835 37.7759H14.9275V18.1199H23.7755C25.7728 18.1199 27.3315 18.5772 28.4515 19.4919C29.5902 20.4066 30.1595 21.6479 30.1595 23.2159C30.1595 24.3732 29.8515 25.3346 29.2355 26.0999C28.6382 26.8652 27.8355 27.3972 26.8275 27.6959ZM19.7155 26.0719H22.8515C28.0878 26.0719 22.9414 21.9559 19.7155 21.9559V26.0719ZM23.2435 33.9119C28.7558 33.9119 23.0822 29.5719 19.7155 29.5719V33.9119H23.2435Z" fill="#1A1301"/>
<path d="M31.5823 29.9359C31.5823 28.3306 31.881 26.9212 32.4783 25.7079C33.0943 24.4946 33.925 23.5612 34.9703 22.9079C36.0156 22.2546 37.1823 21.9279 38.4703 21.9279C39.5716 21.9279 40.533 22.1519 41.3543 22.5999C42.1943 23.0479 42.8383 23.6359 43.2863 24.3639V22.1519H48.0743V37.7759H43.2863V35.5639C42.8196 36.2919 42.1663 36.8799 41.3263 37.3279C40.505 37.7759 39.5436 37.9999 38.4423 37.9999C37.173 37.9999 36.0156 37.6732 34.9703 37.0199C33.925 36.3479 33.0943 35.4052 32.4783 34.1919C31.881 32.9599 31.5823 31.5412 31.5823 29.9359ZM43.2863 29.9639C43.2863 20.0591 30.264 33.8279 39.8703 33.8279C40.8223 33.8279 41.625 33.4826 42.2783 32.7919C42.9503 32.1012 43.2863 31.1586 43.2863 29.9639Z" fill="#1A1301"/>
<path d="M59.1364 37.7759L54.3764 31.2239V37.7759H49.5884V17.0559H54.3764V28.5079L59.1084 22.1519H65.0164L58.5204 29.9919L65.0724 37.7759H59.1364Z" fill="#1A1301"/>
<path d="M19.7155 42.0839C20.1822 41.3559 20.8262 40.7679 21.6475 40.3199C22.4688 39.8719 23.4302 39.6479 24.5315 39.6479C25.8195 39.6479 26.9862 39.9746 28.0315 40.6279C29.0768 41.2812 29.8982 42.2146 30.4955 43.4279C31.1115 44.6412 31.4195 46.0506 31.4195 47.6559C31.4195 49.2612 31.1115 50.6799 30.4955 51.9119C29.8982 53.1252 29.0768 54.0679 28.0315 54.7399C26.9862 55.3932 25.8195 55.7199 24.5315 55.7199C23.4488 55.7199 22.4875 55.4959 21.6475 55.0479C20.8262 54.5999 20.1822 54.0212 19.7155 53.3119V62.9439H14.9275V39.8719H19.7155V42.0839ZM19.6875 47.6839C19.6875 48.8786 20.0142 49.8212 20.6675 50.5119C21.3395 51.2026 22.1515 51.5479 23.1035 51.5479C32.4476 51.5479 19.6875 37.6471 19.6875 47.6839Z" fill="#1A1301"/>
<path d="M31.5794 47.6559C31.5794 46.0506 31.8781 44.6412 32.4754 43.4279C33.0914 42.2146 33.9221 41.2812 34.9674 40.6279C36.0127 39.9746 37.1794 39.6479 38.4674 39.6479C39.5687 39.6479 40.5301 39.8719 41.3514 40.3199C42.1914 40.7679 42.8354 41.3559 43.2834 42.0839V39.8719H48.0714V55.4959H43.2834V53.2839C42.8167 54.0119 42.1634 54.5999 41.3234 55.0479C40.5021 55.4959 39.5407 55.7199 38.4394 55.7199C37.1701 55.7199 36.0127 55.3932 34.9674 54.7399C33.9221 54.0679 33.0914 53.1252 32.4754 51.9119C31.8781 50.6799 31.5794 49.2612 31.5794 47.6559ZM43.2834 47.6839C43.2834 37.7791 30.2611 51.5479 39.8674 51.5479C40.8194 51.5479 41.6221 51.2026 42.2754 50.5119C42.9474 49.8212 43.2834 48.8786 43.2834 47.6839Z" fill="#1A1301"/>
<path d="M59.1342 55.4959L54.3742 48.9439V55.4959H49.5862V37.7753H54.3742V46.2279L59.1062 39.8719H65.0142L58.5182 47.7119L65.0702 55.4959H59.1342Z" fill="#1A1301"/>
<path d="M26.1032 58.1561C26.1032 58.1561 61.8149 58.1561 65.0726 58.1561L65.0726 62.9441L21.9708 62.9441L21.9708 58.1561L26.1032 58.1561Z" fill="#1A1301"/>
</svg>
