<svg width="80" height="80" viewBox="0 0 80 80" fill="none" xmlns="http://www.w3.org/2000/svg">
<path d="M26.8277 27.6959C27.9664 27.9386 28.8811 28.5079 29.5717 29.4039C30.2624 30.2812 30.6077 31.2892 30.6077 32.4279C30.6077 34.0706 30.0291 35.3772 28.8717 36.3479C27.7331 37.2999 26.1371 37.7759 24.0837 37.7759H14.9277V18.1199H23.7757C25.7731 18.1199 27.3317 18.5772 28.4517 19.4919C29.5904 20.4066 30.1597 21.6479 30.1597 23.2159C30.1597 24.3732 29.8517 25.3346 29.2357 26.0999C28.6384 26.8652 27.8357 27.3972 26.8277 27.6959ZM19.7157 26.0719H22.8517C28.0881 26.0719 22.9416 21.9559 19.7157 21.9559V26.0719ZM23.2437 33.9119C28.756 33.9119 23.0824 29.5719 19.7157 29.5719V33.9119H23.2437Z" fill="#1A1301"/>
<path d="M31.5825 29.9359C31.5825 28.3306 31.8812 26.9212 32.4785 25.7079C33.0945 24.4946 33.9252 23.5612 34.9705 22.9079C36.0159 22.2546 37.1825 21.9279 38.4705 21.9279C39.5719 21.9279 40.5332 22.1519 41.3545 22.5999C42.1945 23.0479 42.8385 23.6359 43.2865 24.3639V22.1519H48.0746V37.7759H43.2865V35.5639C42.8199 36.2919 42.1665 36.8799 41.3265 37.3279C40.5052 37.7759 39.5439 37.9999 38.4425 37.9999C37.1732 37.9999 36.0159 37.6732 34.9705 37.0199C33.9252 36.3479 33.0945 35.4052 32.4785 34.1919C31.8812 32.9599 31.5825 31.5412 31.5825 29.9359ZM43.2865 29.9639C43.2865 20.0591 30.2643 33.8279 39.8705 33.8279C40.8225 33.8279 41.6252 33.4826 42.2785 32.7919C42.9505 32.1012 43.2865 31.1586 43.2865 29.9639Z" fill="#1A1301"/>
<path d="M59.1367 37.7759L54.3767 31.2239V37.7759H49.5887V17.0559H54.3767V28.5079L59.1087 22.1519H65.0167L58.5207 29.9919L65.0727 37.7759H59.1367Z" fill="#1A1301"/>
<path d="M19.7157 42.0839C20.1824 41.3559 20.8264 40.7679 21.6477 40.3199C22.4691 39.8719 23.4304 39.6479 24.5317 39.6479C25.8197 39.6479 26.9864 39.9746 28.0317 40.6279C29.0771 41.2812 29.8984 42.2146 30.4957 43.4279C31.1117 44.6412 31.4197 46.0506 31.4197 47.6559C31.4197 49.2612 31.1117 50.6799 30.4957 51.9119C29.8984 53.1252 29.0771 54.0679 28.0317 54.7399C26.9864 55.3932 25.8197 55.7199 24.5317 55.7199C23.4491 55.7199 22.4877 55.4959 21.6477 55.0479C20.8264 54.5999 20.1824 54.0212 19.7157 53.3119V62.9439H14.9277V39.8719H19.7157V42.0839ZM19.6877 47.6839C19.6877 48.8786 20.0144 49.8212 20.6677 50.5119C21.3397 51.2026 22.1517 51.5479 23.1037 51.5479C32.4478 51.5479 19.6877 37.6471 19.6877 47.6839Z" fill="#1A1301"/>
<path d="M31.5796 47.6559C31.5796 46.0506 31.8783 44.6412 32.4756 43.4279C33.0916 42.2146 33.9223 41.2812 34.9676 40.6279C36.013 39.9746 37.1796 39.6479 38.4676 39.6479C39.569 39.6479 40.5303 39.8719 41.3516 40.3199C42.1916 40.7679 42.8356 41.3559 43.2836 42.0839V39.8719H48.0716V55.4959H43.2836V53.2839C42.817 54.0119 42.1636 54.5999 41.3236 55.0479C40.5023 55.4959 39.541 55.7199 38.4396 55.7199C37.1703 55.7199 36.013 55.3932 34.9676 54.7399C33.9223 54.0679 33.0916 53.1252 32.4756 51.9119C31.8783 50.6799 31.5796 49.2612 31.5796 47.6559ZM43.2836 47.6839C43.2836 37.7791 30.2614 51.5479 39.8676 51.5479C40.8196 51.5479 41.6223 51.2026 42.2756 50.5119C42.9476 49.8212 43.2836 48.8786 43.2836 47.6839Z" fill="#1A1301"/>
<path d="M59.1345 55.4959L54.3745 48.9439V55.4959H49.5865V37.7753H54.3745V46.2279L59.1065 39.8719H65.0145L58.5185 47.7119L65.0705 55.4959H59.1345Z" fill="#1A1301"/>
<path d="M26.103 58.1561C26.103 58.1561 61.8148 58.1561 65.0725 58.1561L65.0725 62.9441L21.9707 62.9441L21.9707 58.1561L26.103 58.1561Z" fill="#1A1301"/>
</svg>
